<?xml version="1.0" encoding="utf-8"?>
<!-- Generator: Adobe Illustrator 26.1.0, SVG Export Plug-In . SVG Version: 6.00 Build 0)  -->
<svg version="1.1" id="圖層_1" xmlns="http://www.w3.org/2000/svg" xmlns:xlink="http://www.w3.org/1999/xlink" x="0px" y="0px"
	 viewBox="0 0 52 52" style="enable-background:new 0 0 52 52;" xml:space="preserve">
<style type="text/css">
	.st0{fill:#F61313;}
</style>
<g id="chat" transform="translate(0 -30.11)">
	<g id="Group_24" transform="translate(0 30.11)">
		<path id="Path_11" class="st0" d="M43.1,20.1H21.5c-0.4,0-0.7,0.3-0.7,0.7c0,0.4,0.3,0.7,0.7,0.7c0,0,0,0,0,0h21.6
			c0.4,0,0.7-0.3,0.7-0.7C43.8,20.4,43.5,20.1,43.1,20.1C43.1,20.1,43.1,20.1,43.1,20.1L43.1,20.1z"/>
		<path id="Path_12" class="st0" d="M43.1,25.3H21.5c-0.4,0-0.7,0.3-0.7,0.7c0,0.4,0.3,0.7,0.7,0.7c0,0,0,0,0,0h21.6
			c0.4,0,0.7-0.3,0.7-0.7C43.8,25.6,43.5,25.3,43.1,25.3L43.1,25.3z"/>
		<path id="Path_13" class="st0" d="M43.1,30.5H21.5c-0.4,0-0.7,0.3-0.7,0.7s0.3,0.7,0.7,0.7c0,0,0,0,0,0h21.6
			c0.4,0,0.7-0.3,0.7-0.7S43.5,30.5,43.1,30.5C43.1,30.5,43.1,30.5,43.1,30.5L43.1,30.5z"/>
		<path id="Path_14" class="st0" d="M45.3,14.2H19.3c-2.2,0-4,1.8-4,4v16.3c0,2.2,1.8,4,4,4h18.2c0.2,0,0.4,0.1,0.5,0.2l5.9,7.4
			c0.2,0.3,0.6,0.5,0.9,0.5c0.1,0,0.3,0,0.4-0.1c0.5-0.2,0.8-0.6,0.8-1.1v-7c1.9-0.4,3.2-2,3.2-3.9V18.1
			C49.3,15.9,47.5,14.2,45.3,14.2L45.3,14.2z M47.9,34.4c0,1.4-1.1,2.6-2.6,2.6c-0.4,0-0.7,0.3-0.7,0.7v7.1l-5.6-7
			c-0.4-0.5-1-0.8-1.6-0.8H19.3c-1.4,0-2.6-1.2-2.6-2.6v0V18.1c0-1.4,1.2-2.6,2.6-2.6l0,0h25.9c1.4,0,2.6,1.2,2.6,2.6l0,0L47.9,34.4
			z"/>
		<path id="Path_15" class="st0" d="M12.8,25.4c-0.5,0.1-0.9,0.3-1.2,0.7L6.9,32v-5.9c0-0.4-0.3-0.7-0.7-0.7c-1.2,0-2.1-1-2.1-2.2V9
			c0-1.2,1-2.2,2.2-2.2h22.6c1.2,0,2.2,1,2.2,2.2v2.6c0,0.4,0.3,0.7,0.7,0.7c0.4,0,0.7-0.3,0.7-0.7V9c0-2-1.6-3.5-3.5-3.5H6.3
			c-2,0-3.5,1.6-3.5,3.5v14.2c0,1.7,1.2,3.1,2.8,3.5v6c0,0.5,0.3,0.9,0.8,1.1c0.1,0,0.2,0.1,0.4,0.1c0.3,0,0.7-0.2,0.9-0.4l5.1-6.5
			c0.1-0.1,0.2-0.2,0.3-0.2c0.4,0,0.6-0.4,0.6-0.8C13.5,25.6,13.2,25.4,12.8,25.4C12.8,25.4,12.8,25.4,12.8,25.4L12.8,25.4z"/>
	</g>
</g>
</svg>
