<?xml version="1.0" encoding="utf-8"?>
<!-- Generator: Adobe Illustrator 26.1.0, SVG Export Plug-In . SVG Version: 6.00 Build 0)  -->
<svg version="1.1" id="圖層_1" xmlns="http://www.w3.org/2000/svg" xmlns:xlink="http://www.w3.org/1999/xlink" x="0px" y="0px"
	 viewBox="0 0 52 52" style="enable-background:new 0 0 52 52;" xml:space="preserve">
<style type="text/css">
	.st0{fill:#53E1E3;}
</style>
<path id="chat_1_" class="st0" d="M30.5,43.4c0,0.4-0.3,0.7-0.7,0.7h0h-8.6c-0.4,0-0.7-0.3-0.7-0.7c0-0.4,0.3-0.7,0.7-0.7
	c0,0,0,0,0,0h8.6C30.2,42.7,30.5,43,30.5,43.4z M32.6,15.8c0-0.6,0.5-1.1,1.1-1.1c0.6,0,1.1,0.5,1.1,1.1c0,0.6-0.5,1.1-1.1,1.1l0,0
	C33.1,16.9,32.6,16.4,32.6,15.8z M33.6,15.8c0,0.1,0.1,0.2,0.2,0.2s0.2-0.1,0.2-0.2c0-0.1-0.1-0.2-0.2-0.2S33.6,15.7,33.6,15.8
	L33.6,15.8z M27.2,15.8c0-0.6,0.5-1.1,1.1-1.1c0.6,0,1.1,0.5,1.1,1.1c0,0.6-0.5,1.1-1.1,1.1C27.7,16.9,27.2,16.4,27.2,15.8
	C27.2,15.8,27.2,15.8,27.2,15.8L27.2,15.8z M28.1,15.8c0,0.1,0.1,0.2,0.2,0.2s0.2-0.1,0.2-0.2c0-0.1-0.1-0.2-0.2-0.2
	S28.1,15.7,28.1,15.8L28.1,15.8z M38.1,15.8c0-0.6,0.5-1.1,1.1-1.1c0.6,0,1.1,0.5,1.1,1.1c0,0.6-0.5,1.1-1.1,1.1l0,0
	C38.6,16.9,38.1,16.4,38.1,15.8L38.1,15.8z M39,15.8c0,0.1,0.1,0.2,0.2,0.2s0.2-0.1,0.2-0.2c0-0.1-0.1-0.2-0.2-0.2
	C39.1,15.6,39,15.7,39,15.8L39,15.8z M21,28.7c0,0.6-0.5,1.1-1.1,1.1s-1.1-0.5-1.1-1.1c0-0.6,0.5-1.1,1.1-1.1
	C20.5,27.6,21,28.1,21,28.7L21,28.7z M20,28.7c0-0.1-0.1-0.2-0.2-0.2s-0.2,0.1-0.2,0.2s0.1,0.2,0.2,0.2S20,28.8,20,28.7L20,28.7z
	 M15.5,28.7c0,0.6-0.5,1.1-1.1,1.1s-1.1-0.5-1.1-1.1c0-0.6,0.5-1.1,1.1-1.1C15,27.6,15.5,28.1,15.5,28.7L15.5,28.7z M14.6,28.7
	c0-0.1-0.1-0.2-0.2-0.2s-0.2,0.1-0.2,0.2s0.1,0.2,0.2,0.2S14.6,28.8,14.6,28.7L14.6,28.7z M10.1,28.7c0,0.6-0.5,1.1-1.1,1.1
	s-1.1-0.5-1.1-1.1c0-0.6,0.5-1.1,1.1-1.1S10.1,28.1,10.1,28.7L10.1,28.7z M9.2,28.7c0-0.1-0.1-0.2-0.2-0.2s-0.2,0.1-0.2,0.2
	s0.1,0.2,0.2,0.2S9.2,28.8,9.2,28.7L9.2,28.7z M47,30.7v3.8c0,1.2-1,2.3-2.3,2.3h-6.5V44c-0.1,2.2-1.9,3.8-4.1,3.7H17
	c-2.2,0.1-4-1.6-4.1-3.7V32.9H7.3c-1.2,0-2.3-1-2.3-2.3v-3.8c0-1.2,1-2.3,2.3-2.3h5.7V8C13,5.9,14.8,4.2,17,4.3h17.2
	c2.2-0.1,4,1.6,4.1,3.7v3.6h2.6c1.2,0,2.3,1,2.3,2.3v3.8c0,1.2-1,2.3-2.3,2.3h-2.6v8.5h6.5C46,28.5,47,29.5,47,30.7L47,30.7z
	 M40.9,13H26.6c-0.5,0-0.9,0.4-0.9,0.9v3.8c0,0.5,0.4,0.9,0.9,0.9h14.3c0.5,0,0.9-0.4,0.9-0.9v-3.8C41.8,13.4,41.4,13,40.9,13z
	 M21.9,6.5h6.8V5.7h-6.8V6.5z M7.3,31.5h14.3c0.5,0,0.9-0.4,0.9-0.9v-3.8c0-0.5-0.4-0.9-0.9-0.9H7.3c-0.5,0-0.9,0.4-0.9,0.9v3.8
	C6.4,31.1,6.8,31.5,7.3,31.5z M36.9,36.8h-6.4c-1.2,0-2.3-1-2.3-2.3v-3.8c0-1.2,1-2.3,2.3-2.3h6.4V20H26.6c-1.2,0-2.3-1-2.3-2.3
	v-3.8c0-1.2,1-2.3,2.3-2.3h10.3V8c-0.1-1.4-1.3-2.5-2.7-2.4h-4v1.5c0,0.4-0.3,0.7-0.7,0.7l0,0h-8.2c-0.4,0-0.7-0.3-0.7-0.7V5.7H17
	c-1.4-0.1-2.6,1-2.7,2.4v16.5h7.2c1.2,0,2.3,1,2.3,2.3v3.8c0,1.2-1,2.3-2.3,2.3h-7.2V44c0.1,1.4,1.3,2.5,2.7,2.4h17.2
	c1.4,0.1,2.6-1,2.7-2.4L36.9,36.8z M45.6,30.7c0-0.5-0.4-0.9-0.9-0.9H30.5c-0.5,0-0.9,0.4-0.9,0.9v3.8c0,0.5,0.4,0.9,0.9,0.9h14.3
	c0.5,0,0.9-0.4,0.9-0.9V30.7z M44.2,32.6c0,0.6-0.5,1.1-1.1,1.1c-0.6,0-1.1-0.5-1.1-1.1c0-0.6,0.5-1.1,1.1-1.1c0,0,0,0,0,0
	C43.7,31.5,44.2,32,44.2,32.6L44.2,32.6z M43.3,32.6c0-0.1-0.1-0.2-0.2-0.2s-0.2,0.1-0.2,0.2s0.1,0.2,0.2,0.2S43.3,32.8,43.3,32.6
	L43.3,32.6z M38.8,32.6c0,0.6-0.5,1.1-1.1,1.1s-1.1-0.5-1.1-1.1c0-0.6,0.5-1.1,1.1-1.1c0,0,0,0,0,0C38.2,31.5,38.8,32,38.8,32.6
	L38.8,32.6z M37.8,32.6c0-0.1-0.1-0.2-0.2-0.2s-0.2,0.1-0.2,0.2s0.1,0.2,0.2,0.2S37.8,32.8,37.8,32.6L37.8,32.6z M33.3,32.6
	c0,0.6-0.5,1.1-1.1,1.1c-0.6,0-1.1-0.5-1.1-1.1c0-0.6,0.5-1.1,1.1-1.1c0,0,0,0,0,0C32.8,31.5,33.3,32,33.3,32.6L33.3,32.6z
	 M32.4,32.6c0-0.1-0.1-0.2-0.2-0.2S32,32.5,32,32.6s0.1,0.2,0.2,0.2S32.4,32.8,32.4,32.6L32.4,32.6z"/>
</svg>
